<?xml version="1.0" standalone="no"?>
<svg version="1.0" xmlns="http://www.w3.org/2000/svg"
 width="24.000000pt" height="24.000000pt" viewBox="0 0 24.000000 24.000000"
 preserveAspectRatio="xMidYMid meet">

<g transform="translate(0.000000,24.000000) scale(0.100000,-0.100000)"
fill="current" stroke="none">
<path d="M185 200 c-3 -5 -31 -10 -61 -10 -48 0 -59 -4 -92 -34 l-37 -35 27
-28 c22 -22 25 -32 16 -41 -6 -6 -8 -15 -5 -19 8 -7 177 155 177 169 0 11 -18
10 -25 -2z m-35 -29 c0 -6 -15 -11 -32 -13 -29 -3 -34 -7 -38 -37 -6 -42 -20
-48 -45 -21 -18 19 -18 21 1 41 10 12 28 25 39 30 28 11 75 11 75 0z m-35 -41
c-20 -22 -31 -20 -22 5 4 8 14 15 23 15 16 0 16 -2 -1 -20z"/>
<path d="M205 140 c18 -20 18 -21 -6 -46 -14 -13 -44 -28 -69 -33 l-45 -9 43
-1 c35 -1 49 5 80 33 36 34 37 34 18 55 -11 12 -24 21 -29 21 -6 0 -2 -9 8
-20z"/>
<path d="M138 98 c-15 -15 -16 -18 -3 -18 9 0 18 7 22 15 8 23 0 24 -19 3z"/>
</g>
</svg>
