<?xml version="1.0" standalone="no"?>
<svg version="1.0" xmlns="http://www.w3.org/2000/svg"
 width="24.000000pt" height="24.000000pt" viewBox="0 0 24.000000 24.000000"
 preserveAspectRatio="xMidYMid meet">

<g transform="translate(0.000000,24.000000) scale(0.100000,-0.100000)"
fill="current" stroke="none">
<path d="M32 155 l-37 -35 37 -35 c33 -30 44 -35 88 -35 44 0 55 5 88 35 l37
35 -37 35 c-33 30 -44 35 -88 35 -44 0 -55 -5 -88 -35z m167 -9 l26 -26 -28
-27 c-23 -23 -36 -28 -77 -28 -41 0 -54 5 -77 27 -27 27 -27 27 -7 49 27 30
53 39 98 35 25 -3 49 -14 65 -30z"/>
<path d="M84 146 c-3 -8 -4 -25 -2 -38 2 -19 9 -23 38 -23 33 0 35 2 35 35 0
32 -3 35 -33 38 -21 2 -34 -2 -38 -12z m61 -26 c0 -18 -6 -26 -23 -28 -24 -4
-38 18 -28 44 3 9 15 14 28 12 17 -2 23 -10 23 -28z"/>
</g>
</svg>
