<?xml version="1.0" standalone="no"?>
<!DOCTYPE svg PUBLIC "-//W3C//DTD SVG 20010904//EN"
 "http://www.w3.org/TR/2001/REC-SVG-20010904/DTD/svg10.dtd">
<svg version="1.0" xmlns="http://www.w3.org/2000/svg"
 width="32.000000pt" height="32.000000pt" viewBox="0 0 32.000000 32.000000"
 preserveAspectRatio="xMidYMid meet">

<g transform="translate(0.000000,32.000000) scale(0.100000,-0.100000)"
fill="current" stroke="none">
<path d="M24 287 c-2 -7 -3 -60 -2 -118 l3 -104 78 -3 c48 -2 77 1 77 8 0 6
-28 10 -70 10 l-70 0 0 100 0 100 100 0 100 0 0 -70 c0 -42 4 -70 10 -70 7 0
10 29 8 78 l-3 77 -113 3 c-87 2 -114 0 -118 -11z"/>
<path d="M93 244 c-8 -21 13 -42 28 -27 13 13 5 43 -11 43 -6 0 -13 -7 -17
-16z"/>
<path d="M138 183 c-22 -22 -29 -24 -42 -14 -22 18 -36 5 -36 -35 l0 -34 80 0
80 0 0 33 c0 22 -8 41 -23 55 -29 27 -27 27 -59 -5z"/>
<path d="M240 100 c0 -13 -7 -20 -20 -20 -11 0 -20 -4 -20 -10 0 -5 9 -10 20
-10 13 0 20 -7 20 -20 0 -11 5 -20 10 -20 6 0 10 9 10 20 0 13 7 20 20 20 11
0 20 5 20 10 0 6 -9 10 -20 10 -13 0 -20 7 -20 20 0 11 -4 20 -10 20 -5 0 -10
-9 -10 -20z"/>
</g>
</svg>
