<?xml version="1.0" standalone="no"?>
<!DOCTYPE svg PUBLIC "-//W3C//DTD SVG 20010904//EN"
 "http://www.w3.org/TR/2001/REC-SVG-20010904/DTD/svg10.dtd">
<svg version="1.0" xmlns="http://www.w3.org/2000/svg"
 width="512.000000pt" height="512.000000pt" viewBox="0 0 512.000000 512.000000"
 preserveAspectRatio="xMidYMid meet">

<g transform="translate(0.000000,512.000000) scale(0.100000,-0.100000)"
fill="current" stroke="none">
<path d="M1075 4639 c-241 -35 -454 -189 -565 -408 -18 -35 -42 -91 -54 -125
-20 -60 -21 -78 -24 -1011 -2 -666 0 -969 8 -1015 40 -232 211 -449 434 -550
142 -65 126 -63 857 -67 l666 -4 354 -332 c195 -183 428 -400 516 -483 137
-129 168 -153 208 -163 83 -21 168 16 205 89 19 37 20 61 20 463 l0 424 178 6
c192 6 262 19 366 66 215 97 372 286 426 513 19 80 20 117 20 1013 0 1061 3
1012 -87 1189 -38 72 -65 108 -133 176 -47 47 -111 100 -143 119 -79 46 -198
87 -291 100 -95 13 -2870 13 -2961 0z m3048 -336 c127 -60 227 -186 256 -321
8 -37 11 -325 11 -935 0 -827 -1 -887 -18 -949 -35 -125 -128 -233 -250 -291
l-67 -32 -327 -3 -328 -3 -2 -415 -3 -415 -443 415 -443 415 -723 3 -722 3
-75 37 c-121 60 -211 169 -243 293 -14 51 -16 177 -16 950 0 951 0 936 50
1040 46 95 151 185 261 225 53 19 93 19 1534 17 l1480 -2 68 -32z"/>
<path d="M2440 3812 c-22 -12 -44 -35 -57 -62 -22 -43 -23 -53 -23 -327 l0
-283 -234 0 c-225 0 -234 -1 -266 -22 -76 -52 -97 -123 -58 -197 41 -77 57
-81 325 -81 l233 0 0 -228 c0 -217 1 -230 23 -272 51 -100 192 -108 254 -13
16 24 19 58 23 268 l5 240 300 5 c340 6 335 5 376 88 35 71 14 139 -61 190
-32 22 -39 22 -326 22 l-294 0 0 293 c0 274 -1 294 -20 325 -41 68 -129 91
-200 54z"/>
</g>
</svg>
