<?xml version="1.0" standalone="no"?>
<!DOCTYPE svg PUBLIC "-//W3C//DTD SVG 20010904//EN"
 "http://www.w3.org/TR/2001/REC-SVG-20010904/DTD/svg10.dtd">
<svg version="1.0" xmlns="http://www.w3.org/2000/svg"
 width="32.000000pt" height="32.000000pt" viewBox="0 0 32.000000 32.000000"
 preserveAspectRatio="xMidYMid meet">

<g transform="translate(0.000000,32.000000) scale(0.100000,-0.100000)"
fill="currenr" stroke="none">
<path d="M56 264 c-23 -22 -23 -186 0 -208 22 -23 186 -23 208 0 12 12 16 37
16 104 0 116 -4 120 -120 120 -67 0 -92 -4 -104 -16z m86 -61 c17 -15 19 -15
36 0 37 33 58 12 25 -25 -15 -17 -15 -19 0 -36 33 -37 12 -58 -25 -25 -17 15
-19 15 -36 0 -37 -33 -58 -12 -25 25 15 17 15 19 0 36 -33 37 -12 58 25 25z"/>
</g>
</svg>
