<?xml version="1.0" standalone="no"?>
<!DOCTYPE svg PUBLIC "-//W3C//DTD SVG 20010904//EN"
 "http://www.w3.org/TR/2001/REC-SVG-20010904/DTD/svg10.dtd">
<svg version="1.0" xmlns="http://www.w3.org/2000/svg"
 width="32.000000pt" height="32.000000pt" viewBox="0 0 32.000000 32.000000"
 preserveAspectRatio="xMidYMid meet">

<g transform="translate(0.000000,32.000000) scale(0.100000,-0.100000)"
fill="currnet" stroke="none">
<path d="M83 280 c-87 -52 -83 -198 6 -245 38 -19 104 -19 142 0 89 47 93 193
6 245 -42 26 -112 26 -154 0z m147 -6 c81 -48 81 -180 0 -228 -36 -21 -104
-21 -140 0 -80 48 -81 178 -1 227 34 21 105 21 141 1z"/>
<path d="M94 251 c-90 -55 -47 -201 58 -201 31 0 78 19 78 32 0 5 -10 2 -22
-6 -31 -22 -81 -20 -109 4 l-24 19 78 1 c76 0 77 0 77 25 0 17 -8 29 -24 36
-18 9 -23 18 -22 47 1 34 -1 37 -28 37 -37 0 -56 -27 -39 -54 10 -17 9 -20
-12 -25 -16 -4 -27 -16 -31 -33 l-7 -27 -9 24 c-22 59 32 130 99 130 39 0 99
-50 89 -75 -7 -19 12 -31 27 -16 6 6 7 11 1 11 -5 0 -15 14 -22 30 -26 57
-100 76 -158 41z m81 -41 c0 -18 -6 -26 -23 -28 -24 -4 -38 18 -28 44 3 9 15
14 28 12 17 -2 23 -10 23 -28z m32 -61 c31 -26 14 -37 -61 -41 -70 -3 -73 -2
-66 17 15 41 89 55 127 24z"/>
</g>
</svg>
