<?xml version="1.0" standalone="no"?>
<svg version="1.0" xmlns="http://www.w3.org/2000/svg"
 width="32.000000pt" height="32.000000pt" viewBox="0 0 32.000000 32.000000"
 preserveAspectRatio="xMidYMid meet">

<g transform="translate(0.000000,32.000000) scale(0.100000,-0.100000)"
fill="current" stroke="none">
<path d="M63 300 c-48 -29 -62 -64 -58 -150 l3 -75 77 2 c109 3 158 41 157
122 -2 96 -98 151 -179 101z m116 -16 c36 -26 54 -79 41 -119 -16 -47 -51 -67
-126 -70 l-62 -2 -7 62 c-7 71 6 109 44 130 35 19 82 18 110 -1z"/>
<path d="M57 204 c-8 -8 1 -24 14 -24 5 0 9 7 9 15 0 15 -12 20 -23 9z"/>
<path d="M110 195 c0 -9 5 -15 11 -13 6 2 11 8 11 13 0 5 -5 11 -11 13 -6 2
-11 -4 -11 -13z"/>
<path d="M167 204 c-8 -8 1 -24 14 -24 5 0 9 7 9 15 0 15 -12 20 -23 9z"/>
<path d="M280 201 c0 -7 5 -21 11 -32 6 -13 8 -44 4 -83 l-7 -63 -62 2 c-33 1
-71 7 -83 14 -16 8 -23 8 -23 1 0 -19 63 -36 130 -36 l64 1 1 87 c0 70 -3 91
-17 105 -12 12 -18 13 -18 4z"/>
</g>
</svg>
