<?xml version="1.0" standalone="no"?>
<svg version="1.0" xmlns="http://www.w3.org/2000/svg"
 width="512.000000pt" height="512.000000pt" viewBox="0 0 512.000000 512.000000"
 preserveAspectRatio="xMidYMid meet">

<g transform="translate(0.000000,512.000000) scale(0.100000,-0.100000)"
fill="current" stroke="none">
<path d="M2420 5106 c-120 -31 -219 -93 -297 -186 -86 -104 -123 -217 -123
-381 0 -96 -2 -108 -21 -125 -34 -30 -62 -102 -61 -160 1 -95 66 -182 157
-209 47 -14 52 -19 84 -80 30 -59 118 -155 142 -155 5 0 9 -12 9 -28 0 -26 -7
-30 -152 -86 -84 -32 -183 -74 -220 -93 -127 -66 -217 -193 -238 -338 -16
-113 -13 -370 5 -405 21 -41 70 -53 200 -48 103 3 108 5 131 31 30 36 30 68 0
104 -22 25 -31 28 -106 32 l-83 3 6 137 c7 159 21 210 79 276 47 53 83 72 270
145 l137 53 93 -87 c127 -117 133 -117 252 3 l88 89 157 -64 c86 -35 166 -70
179 -76 43 -22 95 -81 120 -137 23 -50 26 -72 30 -198 l5 -143 -510 0 c-347 0
-520 -4 -542 -11 -80 -28 -66 -138 21 -154 18 -3 282 -5 586 -3 l554 3 24 28
c23 28 24 32 24 212 0 101 -5 208 -11 237 -26 123 -120 252 -226 308 -26 14
-121 55 -210 90 -127 51 -163 69 -163 83 0 10 31 49 69 85 43 43 77 86 92 120
21 47 28 54 66 63 53 14 120 71 144 123 36 79 17 200 -40 250 -19 17 -21 29
-21 125 0 63 -6 132 -15 166 -46 179 -182 327 -355 386 -82 28 -249 35 -330
15z m225 -157 c172 -32 295 -169 311 -348 l7 -73 -24 7 c-38 11 -104 85 -124
140 -24 67 -47 89 -89 89 -30 0 -44 -9 -95 -61 -75 -77 -172 -126 -301 -153
-52 -11 -113 -20 -134 -20 l-39 0 7 73 c22 241 232 392 481 346z m179 -538
l26 -14 0 -141 c0 -177 -8 -205 -74 -272 -63 -62 -97 -74 -221 -74 -137 1
-213 42 -261 145 -21 45 -24 64 -24 188 l0 137 28 0 c81 0 299 82 372 139 l24
19 52 -56 c28 -32 63 -64 78 -71z m-714 -157 c0 -40 -2 -45 -15 -34 -15 13
-21 61 -8 73 16 16 23 4 23 -39z m930 6 c0 -16 -4 -32 -10 -35 -6 -4 -10 10
-10 35 0 25 4 39 10 35 6 -3 10 -19 10 -35z m-392 -535 c3 -10 -16 -37 -44
-66 l-48 -49 -43 42 c-37 36 -54 74 -39 89 2 2 42 3 88 2 69 -1 84 -4 86 -18z"/>
<path d="M1680 4964 c-200 -73 -420 -188 -590 -308 -113 -80 -301 -239 -370
-312 -156 -165 -330 -400 -330 -444 0 -58 58 -95 114 -74 9 3 51 54 93 113
136 190 253 317 413 450 229 190 461 326 718 420 139 51 152 61 152 117 0 34
-42 74 -77 73 -15 0 -71 -16 -123 -35z"/>
<path d="M3310 4993 c-31 -11 -60 -47 -60 -74 0 -42 37 -74 120 -104 463 -170
869 -480 1145 -875 77 -109 88 -120 128 -120 45 0 77 31 77 74 0 48 -79 163
-236 346 -270 314 -607 550 -1014 709 -109 43 -139 51 -160 44z"/>
<path d="M713 3695 c-176 -48 -319 -183 -378 -358 -21 -63 -25 -94 -25 -186 0
-111 0 -111 -34 -156 -71 -92 -70 -208 3 -288 37 -41 98 -77 130 -77 15 0 28
-16 47 -57 26 -55 132 -173 155 -173 6 0 9 -12 7 -26 -3 -24 -18 -32 -186 -99
-202 -80 -276 -124 -332 -200 -85 -113 -100 -176 -100 -428 0 -186 0 -188 25
-212 23 -24 29 -25 157 -25 93 1 138 5 150 14 26 19 39 62 28 90 -16 42 -48
56 -128 56 l-75 0 6 143 c5 151 13 187 59 255 41 59 81 83 264 155 l160 63 95
-88 c128 -119 133 -119 249 2 l86 90 178 -71 c151 -61 184 -78 221 -115 66
-67 86 -129 92 -296 l6 -138 -524 0 c-571 0 -558 1 -579 -56 -11 -29 5 -81 30
-94 12 -6 238 -10 597 -10 623 1 602 -1 623 54 13 35 13 311 0 396 -21 128
-100 251 -206 319 -22 14 -120 58 -217 96 -211 84 -211 84 -113 176 38 35 76
82 93 116 25 49 34 57 71 68 62 19 111 61 138 119 40 86 30 172 -29 242 -25
30 -27 39 -27 125 0 158 -33 267 -110 371 -79 105 -196 181 -318 207 -72 15
-225 13 -289 -4z m278 -161 c112 -34 208 -121 248 -228 19 -52 39 -186 27
-186 -4 0 -20 7 -35 14 -42 22 -86 78 -106 132 -21 57 -56 94 -91 94 -16 0
-47 -22 -92 -63 -38 -34 -95 -77 -128 -94 -66 -35 -185 -68 -283 -78 l-64 -6
5 73 c11 165 130 311 285 347 62 15 176 12 234 -5z m58 -455 c25 -29 59 -61
78 -71 l33 -20 0 -137 c0 -166 -13 -212 -76 -275 -57 -57 -113 -76 -223 -76
-209 1 -298 115 -289 374 l3 89 105 23 c105 24 241 81 290 122 14 12 27 21 30
22 3 0 25 -23 49 -51z m-641 -246 c-3 -28 -3 -28 -16 -6 -9 17 -9 28 0 50 11
27 12 27 15 6 3 -13 3 -35 1 -50z m942 27 c0 -25 -10 -50 -21 -50 -5 0 -9 21
-9 46 0 40 2 45 15 34 8 -7 15 -21 15 -30z m-400 -543 c0 -25 -64 -107 -83
-107 -6 0 -28 17 -49 37 -26 25 -38 46 -38 65 l0 28 85 0 c82 0 85 -1 85 -23z"/>
<path d="M4095 3691 c-143 -41 -277 -153 -339 -283 -43 -92 -56 -155 -56 -273
0 -93 -1 -96 -35 -144 -95 -132 -38 -314 112 -354 38 -10 48 -18 65 -52 31
-62 88 -132 131 -162 29 -20 37 -32 35 -51 -3 -23 -22 -33 -194 -101 -105 -42
-206 -88 -225 -102 -102 -78 -169 -188 -189 -309 -13 -85 -13 -361 0 -396 19
-49 35 -53 178 -54 128 0 134 1 157 25 27 26 31 51 14 88 -16 35 -50 47 -131
47 l-71 0 6 138 c6 167 26 229 93 296 38 38 68 54 212 110 92 36 173 66 181
66 8 0 54 -38 102 -85 117 -115 121 -115 243 4 l91 89 159 -64 c184 -73 223
-97 264 -156 46 -68 54 -104 59 -255 l6 -142 -533 -3 -532 -3 -19 -24 c-26
-32 -25 -82 4 -109 l23 -22 583 0 582 0 24 25 c25 24 25 26 25 212 0 252 -15
315 -100 428 -55 75 -128 119 -327 199 -161 66 -178 75 -181 98 -2 20 4 30 32
48 48 29 99 90 129 154 22 46 29 52 70 63 56 15 114 65 138 118 36 78 16 199
-40 249 -19 17 -21 29 -21 122 0 57 -5 127 -11 156 -40 191 -204 363 -395 412
-82 21 -240 20 -319 -3z m280 -155 c134 -35 234 -136 270 -271 16 -62 20 -145
8 -145 -18 0 -73 41 -96 72 -13 18 -32 55 -42 81 -20 53 -55 87 -92 87 -16 0
-47 -22 -92 -64 -107 -100 -232 -153 -403 -170 l-68 -7 0 44 c0 172 116 327
280 373 60 16 174 17 235 0z m58 -447 c15 -22 47 -54 72 -71 l45 -32 0 -145
c0 -132 -2 -151 -24 -196 -27 -60 -77 -106 -139 -130 -36 -14 -68 -16 -144
-13 -85 3 -105 7 -145 31 -100 58 -127 122 -128 302 l0 130 87 18 c109 23 223
67 288 112 28 19 52 35 55 34 3 0 17 -18 33 -40z m-623 -246 c0 -39 -2 -44
-15 -33 -15 13 -20 47 -9 74 11 28 24 6 24 -41z m930 5 c0 -15 -4 -30 -10 -33
-6 -4 -10 12 -10 42 0 35 3 44 10 33 5 -8 10 -27 10 -42z m-390 -531 c0 -14
-17 -40 -44 -66 l-44 -43 -37 27 c-40 31 -55 54 -55 84 0 20 6 21 90 21 87 0
90 -1 90 -23z"/>
<path d="M2470 2300 c-128 -15 -251 -84 -342 -192 -91 -106 -128 -217 -128
-382 0 -92 -2 -100 -27 -130 -38 -45 -54 -91 -54 -151 0 -60 16 -106 54 -151
28 -33 103 -74 136 -74 13 0 24 -14 36 -47 12 -32 42 -71 92 -121 51 -51 73
-80 71 -94 -2 -15 -38 -33 -163 -82 -208 -82 -254 -106 -313 -165 -56 -56 -92
-113 -118 -191 -16 -47 -19 -87 -19 -263 l0 -209 28 -24 c26 -22 36 -24 147
-24 67 0 130 5 144 11 36 17 52 61 36 99 -17 42 -24 44 -115 50 l-80 5 -3 80
c-7 184 31 306 116 371 22 18 116 62 208 98 l167 66 87 -84 c47 -47 98 -88
112 -91 38 -10 65 7 149 97 l76 81 172 -69 c114 -45 186 -80 212 -102 82 -70
109 -155 109 -344 l0 -108 -524 0 c-514 0 -524 0 -550 -21 -37 -29 -37 -89 0
-118 26 -21 35 -21 595 -21 395 0 575 3 592 11 14 6 30 22 36 36 14 31 15 351
1 424 -22 113 -95 227 -187 291 -25 17 -127 64 -227 103 -146 59 -182 77 -184
94 -2 14 15 38 61 80 36 35 77 85 95 118 27 51 36 60 75 71 96 29 157 113 157
215 0 65 -15 108 -53 153 -25 30 -27 38 -27 130 0 170 -42 287 -138 395 -128
142 -304 204 -512 179z m268 -194 c125 -58 207 -180 219 -329 l6 -69 -39 20
c-53 27 -67 45 -108 133 -19 42 -42 79 -51 83 -42 16 -71 6 -115 -40 -100
-103 -239 -166 -405 -182 l-85 -8 0 41 c0 98 46 208 117 278 78 79 158 107
293 104 92 -2 113 -6 168 -31z m-8 -423 c14 -20 46 -52 73 -71 l47 -34 0 -146
c0 -166 -10 -202 -72 -264 -61 -60 -99 -73 -218 -73 -117 0 -157 14 -218 76
-58 59 -67 90 -70 246 l-3 142 38 6 c127 21 293 84 353 134 34 28 41 26 70
-16z m-620 -239 c0 -32 -4 -44 -12 -42 -14 5 -23 51 -14 74 11 30 26 12 26
-32z m930 -6 c0 -15 -4 -30 -10 -33 -6 -4 -10 12 -10 42 0 35 3 44 10 33 5 -8
10 -27 10 -42z m-390 -526 c0 -10 -20 -40 -44 -67 l-44 -50 -46 45 c-28 27
-46 53 -46 67 0 22 3 23 90 23 80 0 90 -2 90 -18z"/>
<path d="M411 1274 c-34 -44 -27 -72 45 -175 218 -309 497 -568 799 -740 241
-139 281 -151 323 -106 28 29 29 80 3 106 -11 11 -69 45 -131 76 -334 171
-652 450 -862 758 -34 48 -69 92 -79 97 -34 19 -76 12 -98 -16z"/>
<path d="M4591 1281 c-10 -10 -38 -47 -62 -82 -67 -100 -199 -256 -301 -355
-165 -162 -323 -277 -533 -392 -148 -81 -165 -95 -165 -138 0 -53 35 -81 95
-74 48 5 309 156 448 258 226 167 444 395 601 626 53 79 60 122 24 156 -28 26
-82 26 -107 1z"/>
</g>
</svg>
