<?xml version="1.0" standalone="no"?>
<!DOCTYPE svg PUBLIC "-//W3C//DTD SVG 20010904//EN"
 "http://www.w3.org/TR/2001/REC-SVG-20010904/DTD/svg10.dtd">
<svg version="1.0" xmlns="http://www.w3.org/2000/svg"
 width="64.000000pt" height="64.000000pt" viewBox="0 0 64.000000 64.000000"
 preserveAspectRatio="xMidYMid meet">

<g transform="translate(0.000000,64.000000) scale(0.100000,-0.100000)"
fill="current" stroke="none">
<path d="M170 633 c-112 -3 -137 -6 -147 -20 -9 -11 -13 -58 -13 -144 0 -156
2 -159 98 -159 l67 0 39 -53 c47 -63 96 -169 96 -206 0 -54 53 -69 95 -26 30
29 33 77 10 151 -8 27 -15 52 -15 55 0 4 31 4 70 1 105 -7 150 18 151 85 1 84
0 102 -4 140 -2 24 -9 48 -15 55 -5 7 -13 27 -16 44 -14 62 -69 85 -195 82
-47 -1 -147 -4 -221 -5z m-12 -45 c8 -8 12 -49 12 -119 0 -123 -5 -132 -72
-127 l-43 3 -3 114 c-1 63 0 121 2 128 7 17 88 17 104 1z m362 -3 c23 -12 30
-23 30 -44 0 -16 7 -34 15 -41 9 -7 15 -26 13 -44 -1 -18 1 -37 5 -43 4 -6 4
-38 1 -72 -7 -59 -8 -61 -40 -70 -19 -5 -59 -6 -91 -1 -32 4 -64 5 -70 3 -16
-6 -17 -56 -3 -103 16 -51 15 -111 -1 -121 -21 -13 -29 -11 -29 7 0 32 -62
161 -105 219 l-45 60 0 127 c0 149 -18 135 168 137 93 1 130 -3 152 -14z"/>
</g>
</svg>
