<?xml version="1.0" standalone="no"?>
<!DOCTYPE svg PUBLIC "-//W3C//DTD SVG 20010904//EN"
 "http://www.w3.org/TR/2001/REC-SVG-20010904/DTD/svg10.dtd">
<svg version="1.0" xmlns="http://www.w3.org/2000/svg"
 width="32.000000pt" height="32.000000pt" viewBox="0 0 32.000000 32.000000"
 preserveAspectRatio="xMidYMid meet">

<g transform="translate(0.000000,32.000000) scale(0.100000,-0.100000)"
fill="сгккуте" stroke="none">
<path d="M105 310 c-3 -5 -19 -10 -36 -10 -19 0 -29 -5 -29 -15 0 -12 20 -15
120 -15 100 0 120 3 120 15 0 10 -10 15 -29 15 -17 0 -33 5 -36 10 -3 6 -28
10 -55 10 -27 0 -52 -4 -55 -10z"/>
<path d="M50 144 c0 -144 0 -144 110 -144 110 0 110 0 110 144 l0 106 -110 0
-110 0 0 -106z"/>
</g>
</svg>
