<?xml version="1.0" standalone="no"?>
<svg version="1.0" xmlns="http://www.w3.org/2000/svg"
 width="32.000000pt" height="32.000000pt" viewBox="0 0 32.000000 32.000000"
 preserveAspectRatio="xMidYMid meet">

<g transform="translate(0.000000,32.000000) scale(0.100000,-0.100000)"
fill="current" stroke="none">
<path d="M67 303 c-4 -3 -7 -14 -7 -24 0 -11 -9 -19 -22 -21 -22 -3 -23 -6
-23 -123 l0 -120 134 -3 c90 -2 138 1 147 9 17 14 20 179 4 179 -5 0 -10 9
-10 21 0 11 -12 36 -27 55 -28 34 -29 34 -109 34 -44 0 -84 -3 -87 -7z m155
-30 c2 -20 9 -29 26 -31 21 -3 22 -8 22 -98 0 -111 -18 -128 -22 -21 l-3 72
-62 3 c-60 3 -63 4 -63 28 0 17 -7 28 -20 31 -11 3 -20 14 -20 24 0 17 8 19
69 19 69 0 70 0 73 -27z m38 -14 c0 -5 -4 -9 -10 -9 -5 0 -10 7 -10 16 0 8 5
12 10 9 6 -3 10 -10 10 -16z m-150 -39 l0 -30 65 0 65 0 0 -80 c0 -78 0 -79
23 -71 19 7 23 17 28 82 l6 74 -1 -85 -1 -85 -137 -3 -138 -3 0 115 0 116 45
0 c43 0 45 -1 45 -30z"/>
<path d="M128 273 c18 -2 45 -2 60 0 15 2 0 4 -33 4 -33 0 -45 -2 -27 -4z"/>
<path d="M148 253 c12 -2 32 -2 45 0 12 2 2 4 -23 4 -25 0 -35 -2 -22 -4z"/>
<path d="M148 233 c12 -2 32 -2 45 0 12 2 2 4 -23 4 -25 0 -35 -2 -22 -4z"/>
<path d="M158 213 c17 -2 47 -2 65 0 17 2 3 4 -33 4 -36 0 -50 -2 -32 -4z"/>
<path d="M202 173 c9 -2 19 -12 21 -21 3 -12 5 -10 6 6 1 17 -4 22 -21 21 -16
-1 -18 -3 -6 -6z"/>
<path d="M31 53 c-1 -18 4 -23 22 -22 15 1 17 3 5 6 -9 2 -19 12 -21 21 -3 12
-5 10 -6 -5z"/>
</g>
</svg>
