<?xml version="1.0" standalone="no"?>
<svg version="1.0" xmlns="http://www.w3.org/2000/svg"
 width="32.000000pt" height="32.000000pt" viewBox="0 0 32.000000 32.000000"
 preserveAspectRatio="xMidYMid meet">

<g transform="translate(0.000000,32.000000) scale(0.100000,-0.100000)"
fill="current" stroke="none">
<path d="M58 255 c-18 -40 0 -79 38 -83 37 -4 64 19 64 53 0 55 -80 78 -102
30z m82 -30 c0 -29 -28 -47 -53 -34 -22 13 -22 55 0 68 25 13 53 -5 53 -34z"/>
<path d="M208 268 c-29 -22 -27 -72 3 -88 16 -9 26 -8 45 5 31 20 32 59 2 79
-27 19 -30 19 -50 4z m46 -31 c8 -12 7 -21 -5 -33 -15 -14 -18 -14 -33 1 -12
13 -14 21 -5 36 12 23 27 21 43 -4z"/>
<path d="M72 148 c-36 -10 -72 -57 -72 -95 0 -22 3 -23 100 -23 80 0 102 3
106 15 5 11 21 15 60 15 58 0 66 9 42 53 -23 45 -74 60 -119 37 -12 -7 -31 -8
-52 -2 -18 5 -46 5 -65 0z m86 -34 c12 -8 22 -18 22 -23 0 -5 3 -16 6 -25 5
-14 -6 -16 -80 -16 -92 0 -100 5 -70 48 29 42 71 48 122 16z m126 4 c24 -34
20 -38 -30 -38 -51 0 -82 24 -62 47 18 22 75 16 92 -9z"/>
</g>
</svg>
