<?xml version="1.0" standalone="no"?>
<!DOCTYPE svg PUBLIC "-//W3C//DTD SVG 20010904//EN"
 "http://www.w3.org/TR/2001/REC-SVG-20010904/DTD/svg10.dtd">
<svg version="1.0" xmlns="http://www.w3.org/2000/svg"
 width="32.000000pt" height="32.000000pt" viewBox="0 0 32.000000 32.000000"
 preserveAspectRatio="xMidYMid meet">

<g transform="translate(0.000000,32.000000) scale(0.100000,-0.100000)"
fill="current" stroke="none">
<path d="M47 271 c-6 -17 -17 -31 -23 -31 -19 0 -24 -26 -24 -114 0 -50 5 -87
12 -94 8 -8 51 -12 128 -12 l116 0 22 30 c16 22 26 55 33 117 13 104 11 107
-89 117 -37 4 -89 9 -115 13 -46 6 -48 5 -60 -26z m216 -8 c36 -5 37 -7 36
-47 0 -22 -4 -63 -9 -91 l-7 -50 -2 63 c-2 100 -4 102 -121 102 -96 0 -100 1
-100 21 0 21 3 22 83 15 45 -4 99 -9 120 -13z m-19 -39 c11 -4 16 -19 16 -44
0 -35 -4 -40 -46 -64 -48 -27 -66 -25 -94 8 -17 22 -42 20 -74 -5 l-26 -20 0
59 c0 32 3 62 7 65 8 9 196 9 217 1z m-114 -128 c17 -22 48 -20 88 4 18 11 35
20 37 20 3 0 5 -18 5 -40 l0 -40 -120 0 c-118 0 -120 0 -120 23 0 29 56 70 80
57 9 -5 22 -16 30 -24z"/>
<path d="M134 186 c-10 -26 4 -48 28 -44 17 2 23 10 23 28 0 18 -6 26 -23 28
-13 2 -25 -3 -28 -12z m44 -18 c-6 -18 -28 -21 -28 -4 0 9 7 16 16 16 9 0 14
-5 12 -12z"/>
</g>
</svg>
