<?xml version="1.0" standalone="no"?>
<!DOCTYPE svg PUBLIC "-//W3C//DTD SVG 20010904//EN"
 "http://www.w3.org/TR/2001/REC-SVG-20010904/DTD/svg10.dtd">
<svg version="1.0" xmlns="http://www.w3.org/2000/svg"
 width="64.000000pt" height="64.000000pt" viewBox="0 0 64.000000 64.000000"
 preserveAspectRatio="xMidYMid meet">

<g transform="translate(0.000000,64.000000) scale(0.100000,-0.100000)"
fill="current" stroke="none">
<path d="M322 628 c-7 -7 -12 -24 -12 -39 0 -37 -49 -143 -96 -206 l-39 -53
-67 0 c-96 0 -98 -3 -98 -160 0 -98 3 -132 14 -143 20 -20 435 -33 486 -16 48
16 68 35 76 73 3 17 11 37 16 44 6 7 13 31 15 55 4 38 5 56 4 140 -1 67 -46
92 -151 85 -39 -3 -70 -3 -70 1 0 3 7 28 15 55 23 74 20 122 -10 151 -26 27
-64 32 -83 13z m54 -36 c20 -14 23 -42 9 -97 -18 -69 -19 -121 -2 -128 6 -2
38 -1 70 3 32 5 72 4 91 -1 32 -9 33 -11 40 -70 3 -34 3 -66 -1 -72 -4 -6 -6
-25 -5 -41 2 -16 -4 -36 -12 -45 -8 -9 -16 -29 -18 -46 -5 -45 -35 -55 -169
-55 -64 0 -131 3 -148 6 l-31 7 0 126 0 126 45 60 c43 58 105 187 105 219 0
17 9 20 26 8z m-218 -304 c8 -8 12 -49 12 -119 0 -123 -5 -132 -72 -127 l-43
3 -3 114 c-1 63 0 121 2 128 7 17 88 17 104 1z"/>
</g>
</svg>
