<?xml version="1.0" standalone="no"?>
<svg version="1.0" xmlns="http://www.w3.org/2000/svg"
 width="32.000000pt" height="32.000000pt" viewBox="0 0 32.000000 32.000000"
 preserveAspectRatio="xMidYMid meet">

<g transform="translate(0.000000,32.000000) scale(0.100000,-0.100000)"
fill="current" stroke="none">
<path d="M105 304 c-19 -19 -17 -95 3 -102 8 -2 12 10 12 42 l0 46 85 0 85 0
0 -130 0 -130 -85 0 -85 0 0 46 c0 58 -24 56 -28 -3 -5 -62 12 -73 117 -73 54
0 91 4 99 12 17 17 17 279 0 296 -19 19 -183 16 -203 -4z"/>
<path d="M160 202 c0 -4 5 -13 12 -20 9 -9 -8 -12 -80 -12 -55 0 -92 -4 -92
-10 0 -6 37 -10 92 -10 72 0 89 -3 80 -12 -7 -7 -12 -16 -12 -20 0 -16 27 -7
50 17 l23 25 -23 25 c-23 24 -50 33 -50 17z"/>
</g>
</svg>
