<?xml version="1.0" standalone="no"?>
<svg version="1.0" xmlns="http://www.w3.org/2000/svg"
 width="32.000000pt" height="32.000000pt" viewBox="0 0 32.000000 32.000000"
 preserveAspectRatio="xMidYMid meet">

<g transform="translate(0.000000,32.000000) scale(0.100000,-0.100000)"
fill="current" stroke="none">
<path d="M60 247 c0 -67 -2 -77 -18 -77 -42 0 -57 -51 -21 -71 36 -19 53 10
57 97 l4 75 24 -22 c28 -27 30 -44 7 -58 -10 -5 -15 -13 -11 -16 13 -13 37 4
44 31 6 22 -1 33 -40 72 l-46 47 0 -78z m-6 -105 c2 -4 1 -14 -4 -22 -7 -11
-12 -12 -21 -3 -6 6 -8 16 -5 22 8 13 23 14 30 3z"/>
<path d="M228 222 l-58 -16 0 -68 c0 -60 -2 -68 -19 -68 -10 0 -24 -7 -32 -16
-26 -31 25 -70 56 -44 10 9 15 33 15 76 0 70 1 72 78 89 31 6 32 6 32 -29 0
-28 -4 -35 -22 -38 -18 -2 -23 -10 -23 -33 0 -21 5 -31 18 -33 37 -7 47 16 47
109 0 101 4 98 -92 71z m72 -10 c0 -5 -25 -16 -55 -24 -67 -19 -74 -4 -7 16
57 18 62 18 62 8z m0 -137 c0 -8 -6 -15 -14 -15 -17 0 -28 14 -19 24 12 12 33
6 33 -9z m-134 -26 c10 -17 -13 -36 -27 -22 -12 12 -4 33 11 33 5 0 12 -5 16
-11z"/>
</g>
</svg>
