<?xml version="1.0" standalone="no"?>
<svg version="1.0" xmlns="http://www.w3.org/2000/svg"
 width="256.000000pt" height="256.000000pt" viewBox="0 0 256.000000 256.000000"
 preserveAspectRatio="xMidYMid meet">

<g transform="translate(0.000000,256.000000) scale(0.100000,-0.100000)"
fill="current" stroke="none">
<path d="M488 2442 c-46 -28 -58 -67 -58 -191 l0 -111 -162 0 c-186 0 -220
-10 -251 -70 -16 -33 -17 -92 -15 -915 l3 -880 22 -40 c28 -52 68 -89 123
-114 44 -20 62 -21 747 -21 663 0 703 1 712 18 6 11 6 24 0 35 -9 16 -51 17
-589 17 -356 0 -580 4 -580 9 0 6 5 13 11 17 6 3 20 25 30 48 17 38 19 73 19
524 0 438 -2 483 -16 489 -9 3 -24 2 -33 -4 -14 -9 -17 -62 -21 -484 -4 -425
-7 -477 -22 -506 -66 -119 -241 -120 -307 -2 -21 36 -21 48 -21 906 0 663 3
872 12 881 8 8 62 12 175 12 l163 0 2 -362 3 -363 30 0 30 0 5 513 c5 494 6
514 24 528 17 12 165 14 969 14 634 0 955 -3 968 -10 19 -10 19 -33 19 -1046
0 -1027 0 -1037 -21 -1073 -11 -20 -36 -48 -56 -61 l-36 -25 -333 -3 c-354 -3
-364 -4 -349 -52 6 -20 13 -20 337 -20 222 0 343 4 369 12 51 15 114 69 142
122 l22 41 3 1040 c2 765 -1 1047 -9 1068 -6 15 -25 39 -41 52 l-30 25 -981 0
c-907 -1 -984 -2 -1009 -18z"/>
<path d="M2079 2271 c-67 -22 -99 -61 -99 -124 0 -48 31 -82 111 -123 70 -35
91 -60 81 -97 -5 -19 -39 -37 -71 -37 -10 0 -36 12 -57 26 -42 29 -66 24 -72
-14 -7 -47 85 -89 167 -77 32 5 54 16 78 40 29 29 33 39 33 88 0 70 -26 103
-108 140 -33 15 -65 34 -72 42 -17 21 -9 47 22 64 24 14 32 14 76 -1 36 -11
53 -13 61 -5 17 17 13 55 -6 65 -27 14 -115 22 -144 13z"/>
<path d="M736 2255 c-3 -9 -6 -103 -6 -210 0 -207 3 -220 52 -213 22 3 23 7
28 133 l5 130 64 -120 c35 -66 68 -126 74 -133 6 -7 24 -12 41 -10 l31 3 0
215 0 215 -35 0 -35 0 -3 -130 -3 -130 -67 130 c-66 128 -68 130 -103 133 -26
2 -38 -1 -43 -13z"/>
<path d="M1107 2263 c-9 -8 -9 -396 -1 -417 9 -24 262 -24 271 0 14 37 -10 49
-106 52 l-91 3 0 59 0 59 58 3 c53 3 57 5 57 28 0 23 -4 25 -57 28 l-58 3 0
59 0 59 91 3 c96 3 120 15 106 52 -5 14 -25 16 -135 16 -71 0 -132 -3 -135 -7z"/>
<path d="M1431 2256 c-10 -12 0 -53 52 -217 59 -187 66 -204 91 -212 45 -15
71 11 86 85 20 97 26 99 46 13 14 -59 24 -81 42 -93 22 -14 27 -14 50 -1 23
12 35 42 89 213 66 210 67 226 17 226 -12 0 -26 -4 -29 -10 -3 -5 -26 -78 -50
-161 -24 -83 -46 -153 -48 -156 -3 -2 -15 38 -27 89 -28 115 -35 128 -64 128
-34 0 -41 -14 -66 -123 -12 -54 -24 -96 -27 -93 -3 3 -27 77 -52 163 -43 148
-48 158 -72 161 -14 2 -31 -4 -38 -12z"/>
<path d="M763 1636 l-28 -24 0 -297 0 -297 28 -24 28 -24 290 0 290 0 24 25
25 24 0 296 0 296 -25 24 -24 25 -290 0 -290 0 -28 -24z m582 -321 l0 -270
-265 0 -265 0 -3 260 c-1 143 0 265 3 273 3 10 61 12 267 10 l263 -3 0 -270z"/>
<path d="M1530 1639 c-9 -15 -8 -24 1 -35 10 -12 69 -14 383 -12 l371 3 0 30
0 30 -372 3 c-368 2 -372 2 -383 -19z"/>
<path d="M1530 1329 c-9 -15 -8 -24 1 -35 10 -12 69 -14 383 -12 l371 3 0 30
0 30 -372 3 c-368 2 -372 2 -383 -19z"/>
<path d="M1531 1026 c-9 -11 -10 -20 -1 -35 11 -21 15 -21 383 -19 l372 3 0
30 0 30 -371 3 c-314 2 -373 0 -383 -12z"/>
<path d="M750 722 c-19 -16 -21 -22 -11 -40 l12 -22 754 0 c414 0 760 3 769 6
22 9 20 51 -3 64 -13 7 -269 10 -759 10 -700 0 -741 -1 -762 -18z"/>
<path d="M746 414 c-9 -8 -16 -19 -16 -24 0 -5 7 -16 16 -24 14 -14 94 -16
771 -14 707 3 757 4 767 21 8 12 8 22 0 35 -10 16 -60 17 -767 20 -677 2 -757
0 -771 -14z"/>
</g>
</svg>
