<?xml version="1.0" standalone="no"?>
<svg version="1.0" xmlns="http://www.w3.org/2000/svg"
 width="256.000000pt" height="256.000000pt" viewBox="0 0 256.000000 256.000000"
 preserveAspectRatio="xMidYMid meet">

<g transform="translate(0.000000,256.000000) scale(0.100000,-0.100000)"
fill="current" stroke="none">
<path d="M1220 2551 c-147 -45 -219 -201 -156 -337 47 -100 159 -158 265 -136
102 22 171 91 193 193 35 170 -137 330 -302 280z m138 -121 c84 -51 79 -185
-9 -232 -92 -49 -199 13 -199 115 0 108 116 173 208 117z"/>
<path d="M616 2370 c-81 -26 -137 -94 -144 -176 -11 -137 86 -233 223 -222
155 13 232 186 142 319 -42 63 -150 102 -221 79z m103 -114 c53 -28 66 -97 26
-144 -30 -36 -69 -45 -113 -26 -64 26 -75 113 -20 159 33 28 66 32 107 11z"/>
<path d="M1831 2365 c-168 -52 -189 -289 -32 -372 166 -87 353 77 287 252 -21
53 -81 110 -133 124 -48 14 -67 13 -122 -4z m137 -130 c31 -37 30 -94 -4 -128
-42 -42 -97 -42 -139 0 -44 44 -28 130 29 154 35 14 89 2 114 -26z"/>
<path d="M1023 1980 c-93 -19 -180 -87 -224 -176 -24 -48 -24 -55 -27 -344 -3
-294 -3 -296 20 -329 33 -48 83 -73 141 -69 l47 3 0 -460 c0 -430 2 -463 19
-502 40 -88 155 -127 240 -81 l44 24 46 -24 c86 -44 195 -10 237 75 18 35 19
69 22 503 l3 465 44 -3 c61 -5 118 28 146 84 19 41 20 57 17 321 -3 265 -4
280 -26 328 -43 93 -131 163 -230 184 -61 13 -456 13 -519 1z m542 -119 c43
-19 100 -78 116 -118 14 -38 12 -546 -3 -561 -15 -15 -61 -15 -76 0 -9 9 -12
74 -12 230 0 205 -1 219 -20 238 -24 24 -47 25 -72 3 -17 -15 -18 -52 -18
-753 0 -731 0 -738 -21 -764 -25 -32 -70 -35 -99 -6 -19 19 -20 33 -20 435 0
402 -1 416 -20 435 -24 24 -38 25 -68 4 l-22 -15 0 -413 c0 -403 -1 -414 -21
-440 -25 -32 -64 -34 -96 -4 l-23 21 0 737 c0 649 -2 738 -16 758 -18 26 -50
28 -76 5 -16 -15 -18 -36 -18 -238 0 -236 -2 -245 -50 -245 -56 0 -55 -2 -55
277 0 284 4 307 58 363 63 65 85 70 352 70 211 0 245 -3 280 -19z"/>
<path d="M405 1856 c-63 -29 -102 -68 -131 -131 -23 -48 -24 -59 -24 -280 0
-164 4 -237 13 -255 19 -37 74 -70 118 -70 l39 0 0 -369 c0 -365 0 -368 23
-401 12 -18 34 -42 48 -53 35 -25 117 -27 153 -4 24 16 28 16 51 1 37 -24 114
-22 157 4 65 40 68 56 68 369 0 298 -1 303 -50 303 -49 0 -50 -6 -50 -290 0
-246 -1 -268 -18 -283 -25 -23 -48 -21 -66 5 -14 19 -16 70 -16 350 0 284 -2
329 -16 342 -21 21 -47 20 -67 -2 -15 -17 -17 -56 -17 -349 0 -307 -1 -331
-18 -346 -25 -23 -48 -21 -66 5 -14 20 -16 94 -16 603 0 439 -3 584 -12 593
-15 15 -61 15 -76 0 -8 -8 -12 -62 -12 -178 0 -91 -4 -171 -9 -178 -4 -8 -19
-12 -32 -10 l-24 3 -3 170 c-4 234 1 268 46 317 44 46 82 57 197 58 88 0 105
8 105 50 0 44 -15 50 -135 50 -94 0 -117 -3 -160 -24z"/>
<path d="M1870 1861 c-12 -24 -13 -41 0 -61 7 -11 37 -16 117 -21 121 -6 158
-20 195 -71 22 -32 23 -39 23 -253 l0 -220 -25 0 -25 0 -5 178 c-5 189 -7 196
-57 197 -55 0 -53 18 -53 -619 0 -443 -3 -590 -12 -599 -17 -17 -44 -15 -62 4
-14 13 -16 59 -16 345 0 316 -1 330 -20 349 -11 11 -27 20 -35 20 -8 0 -24 -9
-35 -20 -19 -19 -20 -33 -20 -355 l0 -335 -24 -11 c-17 -8 -29 -8 -45 0 -21
11 -21 17 -21 280 0 247 -1 269 -18 284 -26 23 -58 21 -76 -5 -14 -19 -16 -63
-16 -283 0 -251 1 -262 23 -305 38 -76 129 -106 202 -68 27 15 33 15 60 0 65
-33 153 -11 199 51 20 28 21 40 24 403 l3 374 32 0 c46 0 97 31 119 71 17 31
19 55 16 264 -3 228 -3 231 -30 281 -30 57 -73 98 -133 125 -31 15 -65 19
-157 19 -106 0 -118 -2 -128 -19z"/>
</g>
</svg>
