<?xml version="1.0" standalone="no"?>
<!DOCTYPE svg PUBLIC "-//W3C//DTD SVG 20010904//EN"
 "http://www.w3.org/TR/2001/REC-SVG-20010904/DTD/svg10.dtd">
<svg version="1.0" xmlns="http://www.w3.org/2000/svg"
 width="24.000000pt" height="24.000000pt" viewBox="0 0 24.000000 24.000000"
 preserveAspectRatio="xMidYMid meet">

<g transform="translate(0.000000,24.000000) scale(0.100000,-0.100000)"
fill="current" stroke="none">
<path d="M89 219 c-8 -15 -14 -18 -22 -10 -16 16 -51 -17 -36 -35 8 -9 5 -15
-10 -24 -27 -14 -27 -46 0 -60 15 -9 18 -15 10 -24 -15 -18 20 -51 36 -35 8 8
14 5 22 -10 15 -27 47 -27 62 0 8 15 14 18 22 10 16 -16 51 17 36 35 -8 9 -5
15 10 24 27 14 27 46 0 61 -15 8 -18 14 -10 22 16 16 -17 51 -35 36 -9 -8 -15
-5 -24 10 -14 27 -46 27 -61 0z m51 -3 c0 -21 18 -30 34 -17 18 15 40 -7 25
-25 -13 -16 -4 -34 17 -34 8 0 14 -9 14 -20 0 -11 -6 -20 -14 -20 -20 0 -31
-19 -17 -33 16 -16 -7 -41 -25 -26 -16 13 -34 4 -34 -17 0 -8 -9 -14 -20 -14
-11 0 -20 6 -20 14 0 21 -18 30 -34 17 -18 -15 -41 10 -25 26 14 14 3 33 -17
33 -8 0 -14 9 -14 20 0 11 6 20 14 20 20 0 31 19 17 33 -16 16 7 41 25 26 16
-13 34 -4 34 17 0 8 9 14 20 14 11 0 20 -6 20 -14z"/>
<path d="M86 154 c-31 -30 -9 -84 34 -84 24 0 50 26 50 50 0 24 -26 50 -50 50
-10 0 -26 -7 -34 -16z m64 -9 c26 -32 -13 -81 -47 -59 -10 6 -19 19 -21 28 -8
38 43 61 68 31z"/>
</g>
</svg>
