<?xml version="1.0" standalone="no"?>
<!DOCTYPE svg PUBLIC "-//W3C//DTD SVG 20010904//EN"
 "http://www.w3.org/TR/2001/REC-SVG-20010904/DTD/svg10.dtd">
<svg version="1.0" xmlns="http://www.w3.org/2000/svg"
 width="32.000000pt" height="32.000000pt" viewBox="0 0 32.000000 32.000000"
 preserveAspectRatio="xMidYMid meet">

<g transform="translate(0.000000,32.000000) scale(0.100000,-0.100000)"
fill="current" stroke="none">
<path d="M109 295 c-29 -16 -44 -48 -53 -113 -4 -24 -12 -52 -19 -62 -15 -26
1 -54 34 -58 13 -2 34 -15 46 -28 12 -13 31 -24 43 -24 12 0 31 11 43 24 12
13 33 26 46 28 33 4 49 32 33 58 -17 28 -15 47 8 70 27 27 26 71 -2 97 -18 17
-36 21 -88 21 -36 0 -77 -6 -91 -13z m64 -40 c-5 -29 -1 -41 17 -60 13 -14 32
-25 42 -25 12 0 18 -7 18 -23 0 -13 5 -28 11 -34 24 -24 -3 -33 -101 -33 -98
0 -122 8 -101 34 6 7 14 39 17 71 8 67 36 105 78 105 23 0 24 -3 19 -35z m101
19 c31 -30 9 -84 -34 -84 -24 0 -50 26 -50 50 0 10 7 26 16 34 8 9 24 16 34
16 10 0 26 -7 34 -16z m-84 -229 c-16 -19 -44 -19 -60 0 -11 13 -7 15 30 15
37 0 41 -2 30 -15z"/>
<path d="M255 261 c-3 -6 -15 -11 -27 -11 -17 0 -19 -2 -8 -16 12 -13 15 -13
34 5 11 11 17 23 14 26 -3 4 -9 2 -13 -4z"/>
</g>
</svg>
