<?xml version="1.0" standalone="no"?>
<svg version="1.0" xmlns="http://www.w3.org/2000/svg"
 width="24.000000pt" height="24.000000pt" viewBox="0 0 24.000000 24.000000"
 preserveAspectRatio="xMidYMid meet">

<g transform="translate(0.000000,24.000000) scale(0.100000,-0.100000)"
fill="current" stroke="none">
<path d="M86 224 c-34 -34 -9 -114 36 -114 24 0 48 34 48 68 0 34 -22 62 -50
62 -10 0 -26 -7 -34 -16z m58 -10 c9 -8 16 -25 16 -36 0 -21 -26 -58 -41 -58
-16 0 -39 32 -39 55 0 23 23 55 40 55 5 0 16 -7 24 -16z"/>
<path d="M48 94 c-41 -22 -39 -68 3 -83 41 -14 97 -14 138 0 25 9 31 16 31 40
0 22 -7 32 -31 44 -17 9 -33 14 -36 11 -3 -2 9 -12 26 -21 62 -32 30 -69 -59
-69 -89 0 -121 37 -60 69 29 15 38 25 23 25 -5 -1 -20 -8 -35 -16z"/>
</g>
</svg>
