<?xml version="1.0" standalone="no"?>
<svg version="1.0" xmlns="http://www.w3.org/2000/svg"
 width="32.000000pt" height="32.000000pt" viewBox="0 0 32.000000 32.000000"
 preserveAspectRatio="xMidYMid meet">

<g transform="translate(0.000000,32.000000) scale(0.100000,-0.100000)"
fill="current" stroke="none">
<path d="M4 307 c-2 -7 -3 -58 -2 -113 l3 -99 45 -5 c39 -4 42 -7 26 -16 -30
-18 -9 -34 43 -34 41 0 50 -3 54 -20 5 -19 12 -21 74 -18 l68 3 3 37 c2 28 -2
40 -17 50 -13 8 -17 17 -11 27 4 9 5 56 1 106 l-6 90 -138 3 c-108 2 -139 0
-143 -11z m276 -52 c0 -53 -1 -55 -27 -55 -31 0 -63 -26 -63 -52 0 -26 -25
-22 -38 7 -6 14 -17 25 -24 25 -9 0 -9 3 0 12 19 19 14 46 -12 63 -40 27 -89
-13 -66 -54 7 -15 7 -22 -3 -28 -8 -4 -19 -17 -25 -28 -9 -16 -11 -2 -12 73
l0 92 135 0 135 0 0 -55z m-166 -11 c19 -19 20 -25 3 -48 -9 -13 -20 -16 -34
-12 -29 9 -37 35 -17 57 21 23 28 24 48 3z m168 -79 c8 -19 8 -28 -2 -40 -32
-38 -94 1 -70 45 16 29 58 26 72 -5z m-215 -20 c-7 -16 -37 -21 -37 -6 0 16
18 22 23 9 3 -7 6 -5 6 6 1 11 4 17 7 13 4 -3 4 -13 1 -22z m50 3 c-3 -8 -6
-5 -6 6 -1 11 2 17 5 13 3 -3 4 -12 1 -19z m33 -9 c0 -5 -4 -9 -10 -9 -5 0
-10 7 -10 16 0 8 5 12 10 9 6 -3 10 -10 10 -16z m-50 1 c0 -5 -4 -10 -10 -10
-5 0 -10 5 -10 10 0 6 5 10 10 10 6 0 10 -4 10 -10z m105 -30 c4 -6 -30 -10
-94 -10 -61 0 -101 4 -101 10 0 13 187 13 195 0z m89 -26 c9 -8 16 -29 16 -45
l0 -29 -65 0 -65 0 0 29 c0 16 7 37 16 45 20 21 78 21 98 0z m-119 -4 c-3 -5
-19 -10 -36 -10 -16 0 -29 5 -29 10 0 6 16 10 36 10 21 0 33 -4 29 -10z m-27
-27 c-16 -2 -40 -2 -55 0 -16 2 -3 4 27 4 30 0 43 -2 28 -4z"/>
<path d="M157 294 c-4 -4 -7 -22 -7 -39 0 -35 30 -71 46 -56 5 5 23 11 39 13
28 3 30 6 30 43 l0 40 -50 3 c-28 2 -54 0 -58 -4z m98 -39 c0 -25 -5 -30 -34
-36 -48 -10 -61 -2 -61 38 l0 34 48 -3 c45 -3 47 -4 47 -33z"/>
<path d="M178 273 c7 -3 16 -2 19 1 4 3 -2 6 -13 5 -11 0 -14 -3 -6 -6z"/>
<path d="M193 253 c9 -2 25 -2 35 0 9 3 1 5 -18 5 -19 0 -27 -2 -17 -5z"/>
</g>
</svg>
